FILE "Cosmic Fantasy Stories (1992)(Riot)(JP).img" BINARY
  TRACK 01 MODE1/2352
    INDEX 01 00:00:00
  TRACK 02 AUDIO
    PREGAP 00:02:00
    INDEX 01 05:07:38
  TRACK 03 AUDIO
    INDEX 00 05:11:56
    INDEX 01 05:13:55
  TRACK 04 AUDIO
    INDEX 00 05:34:72
    INDEX 01 05:36:71
  TRACK 05 AUDIO
    INDEX 00 05:45:51
    INDEX 01 05:47:50
  TRACK 06 AUDIO
    INDEX 00 06:13:31
    INDEX 01 06:15:30
  TRACK 07 AUDIO
    INDEX 00 07:08:48
    INDEX 01 07:10:47
  TRACK 08 AUDIO
    INDEX 00 07:23:63
    INDEX 01 07:25:62
  TRACK 09 AUDIO
    INDEX 00 07:45:54
    INDEX 01 07:47:53
  TRACK 10 AUDIO
    INDEX 00 08:24:14
    INDEX 01 08:26:13
  TRACK 11 AUDIO
    INDEX 00 08:32:51
    INDEX 01 08:34:50
  TRACK 12 AUDIO
    INDEX 00 08:40:66
    INDEX 01 08:42:65
  TRACK 13 AUDIO
    INDEX 00 08:59:21
    INDEX 01 09:01:20
  TRACK 14 AUDIO
    INDEX 00 09:35:70
    INDEX 01 09:37:69
  TRACK 15 AUDIO
    INDEX 00 09:44:45
    INDEX 01 09:46:44
  TRACK 16 AUDIO
    INDEX 00 09:56:44
    INDEX 01 09:58:43
  TRACK 17 AUDIO
    INDEX 00 11:05:16
    INDEX 01 11:07:15
  TRACK 18 AUDIO
    INDEX 00 11:31:66
    INDEX 01 11:33:65
  TRACK 19 AUDIO
    INDEX 00 12:19:07
    INDEX 01 12:21:06
  TRACK 20 AUDIO
    INDEX 00 13:19:72
    INDEX 01 13:21:71
  TRACK 21 AUDIO
    INDEX 00 13:37:37
    INDEX 01 13:39:36
  TRACK 22 AUDIO
    INDEX 00 14:08:25
    INDEX 01 14:10:24
  TRACK 23 AUDIO
    INDEX 00 14:57:62
    INDEX 01 14:59:61
  TRACK 24 AUDIO
    INDEX 00 16:02:49
    INDEX 01 16:04:48
  TRACK 25 AUDIO
    INDEX 00 17:23:52
    INDEX 01 17:25:51
  TRACK 26 AUDIO
    INDEX 00 18:20:74
    INDEX 01 18:22:73
  TRACK 27 AUDIO
    INDEX 00 18:43:32
    INDEX 01 18:45:31
  TRACK 28 AUDIO
    INDEX 00 18:55:30
    INDEX 01 18:57:29
  TRACK 29 AUDIO
    INDEX 00 19:26:12
    INDEX 01 19:28:11
  TRACK 30 AUDIO
    INDEX 00 20:27:11
    INDEX 01 20:29:10
  TRACK 31 AUDIO
    INDEX 00 21:08:04
    INDEX 01 21:10:03
  TRACK 32 AUDIO
    INDEX 00 21:22:64
    INDEX 01 21:24:63
  TRACK 33 AUDIO
    INDEX 00 23:43:05
    INDEX 01 23:45:04
  TRACK 34 AUDIO
    INDEX 00 23:49:68
    INDEX 01 23:51:67
  TRACK 35 AUDIO
    INDEX 00 24:46:05
    INDEX 01 24:48:04
  TRACK 36 AUDIO
    INDEX 00 25:07:15
    INDEX 01 25:09:14
  TRACK 37 AUDIO
    INDEX 00 25:32:69
    INDEX 01 25:34:68
  TRACK 38 AUDIO
    INDEX 00 26:45:44
    INDEX 01 26:47:43
  TRACK 39 AUDIO
    INDEX 00 27:58:41
    INDEX 01 28:00:40
  TRACK 40 AUDIO
    INDEX 00 28:51:49
    INDEX 01 28:53:48
  TRACK 41 AUDIO
    INDEX 00 29:52:17
    INDEX 01 29:54:16
  TRACK 42 AUDIO
    INDEX 00 32:31:08
    INDEX 01 32:33:07
  TRACK 43 AUDIO
    INDEX 00 33:39:13
    INDEX 01 33:41:12
  TRACK 44 AUDIO
    INDEX 00 34:55:73
    INDEX 01 34:57:72
  TRACK 45 AUDIO
    INDEX 00 35:35:58
    INDEX 01 35:37:57
  TRACK 46 AUDIO
    INDEX 00 35:53:50
    INDEX 01 35:55:49
  TRACK 47 AUDIO
    INDEX 00 37:20:72
    INDEX 01 37:22:71
  TRACK 48 AUDIO
    INDEX 00 37:43:40
    INDEX 01 37:45:39
  TRACK 49 AUDIO
    INDEX 00 38:45:25
    INDEX 01 38:47:24
  TRACK 50 AUDIO
    INDEX 00 39:32:54
    INDEX 01 39:34:53
  TRACK 51 AUDIO
    INDEX 00 40:46:02
    INDEX 01 40:48:01
  TRACK 52 AUDIO
    INDEX 00 41:29:69
    INDEX 01 41:31:68
  TRACK 53 AUDIO
    INDEX 00 42:45:66
    INDEX 01 42:47:65
  TRACK 54 AUDIO
    INDEX 00 44:23:70
    INDEX 01 44:25:69
  TRACK 55 AUDIO
    INDEX 00 44:58:32
    INDEX 01 45:00:31
  TRACK 56 AUDIO
    INDEX 00 49:31:35
    INDEX 01 49:33:34
  TRACK 57 AUDIO
    INDEX 00 50:31:30
    INDEX 01 50:33:28
  TRACK 58 AUDIO
    INDEX 00 51:23:52
    INDEX 01 51:25:51
